<svg id="visual" viewBox="0 0 1310 500" width="1310" height="500" xmlns="http://www.w3.org/2000/svg" xmlns:xlink="http://www.w3.org/1999/xlink" version="1.1"><rect x="0" y="0" width="1310" height="500" fill="#171717"></rect><g transform="translate(494.59723087784636 179.82665255322755)"><path d="M312.9 -294.9C436 -269.7 587.3 -199.9 627.9 -92.6C668.5 14.8 598.4 159.9 506.4 267.1C414.4 374.4 300.6 443.7 192.8 447.2C84.9 450.7 -16.9 388.4 -100.5 333.2C-184.2 278 -249.7 230 -285.7 165.8C-321.8 101.7 -328.3 21.3 -305.9 -44.9C-283.5 -111.2 -232.1 -163.3 -176.3 -200.5C-120.5 -237.6 -60.3 -259.8 17.3 -280.5C94.9 -301.1 189.8 -320.2 312.9 -294.9" fill="#ffffff"></path></g></svg>